<?xml version="1.0" standalone="no"?>
<!DOCTYPE svg PUBLIC "-//W3C//DTD SVG 20010904//EN"
 "http://www.w3.org/TR/2001/REC-SVG-20010904/DTD/svg10.dtd">
<svg version="1.0" xmlns="http://www.w3.org/2000/svg"
 width="240.000000pt" height="299.000000pt" viewBox="0 0 240.000000 299.000000"
 preserveAspectRatio="xMidYMid meet">

<g transform="translate(0.000000,299.000000) scale(0.100000,-0.100000)"
fill="#000000" stroke="none">
<path d="M61 2238 c0 -884 9 -1016 87 -1248 98 -296 265 -495 580 -693 85 -53
281 -153 423 -214 l46 -20 104 46 c614 274 892 570 988 1046 11 55 23 125 26
155 4 30 9 409 11 843 l5 787 -1135 0 -1135 0 0 -702z m2246 -125 c-4 -863 -4
-854 -57 -1051 -12 -46 -24 -81 -26 -79 -2 2 5 38 16 81 11 42 22 100 25 129
5 51 5 51 -10 -13 -62 -274 -161 -460 -334 -630 -154 -151 -329 -264 -589
-380 -141 -64 -172 -86 -77 -56 11 3 1 -3 -23 -14 l-42 -21 -143 66 c-511 235
-771 487 -891 861 -71 222 -75 287 -76 1162 l0 752 1116 0 1115 0 -4 -807z
m-98 -1182 c-6 -18 -13 -30 -15 -28 -2 2 1 18 7 36 6 18 13 30 15 28 2 -2 -1
-18 -7 -36z m-63 -136 c-113 -201 -283 -364 -534 -512 -96 -57 -322 -167 -328
-160 -2 2 33 21 78 43 397 190 644 393 777 636 20 36 38 65 40 63 2 -2 -13
-34 -33 -70z"/>
<path d="M2285 2889 c-7 -11 3 -490 11 -498 2 -2 4 111 4 252 0 141 -2 257 -4
257 -3 0 -8 -5 -11 -11z"/>
<path d="M2122 2743 c-52 -52 -95 -93 -97 -91 -2 2 2 22 10 43 18 51 19 115 3
114 -7 0 -44 -39 -82 -85 -88 -110 -196 -198 -259 -209 -31 -7 -90 -51 -151
-115 -51 -53 -56 -63 -56 -102 0 -34 7 -54 31 -87 32 -42 32 -43 15 -77 -9
-19 -16 -59 -16 -89 0 -60 -8 -69 -49 -60 -30 6 -51 45 -25 45 8 0 14 5 14 10
0 6 -3 10 -8 10 -4 0 -18 21 -31 48 -14 26 -34 55 -45 65 -19 16 -19 17 -2 10
13 -4 17 -3 12 5 -4 7 -13 12 -21 12 -8 0 -17 5 -21 12 -4 7 -3 8 4 4 7 -4 12
-2 12 3 0 6 -11 11 -25 11 -29 0 -32 8 -7 26 15 12 15 13 -10 14 -30 0 -45 15
-26 26 8 5 4 10 -10 15 -22 8 -31 29 -12 29 6 0 10 7 10 15 0 9 12 18 29 21
16 4 39 17 51 29 26 27 19 50 -10 35 -10 -5 -25 -10 -32 -10 -19 1 34 29 55
30 21 0 83 57 73 67 -3 3 -14 -1 -24 -10 -33 -30 -52 -22 -52 23 0 62 -26 74
-134 62 -78 -9 -91 -13 -140 -50 -69 -53 -95 -96 -107 -179 -16 -109 -13 -183
10 -241 22 -56 27 -117 11 -127 -6 -3 -22 3 -36 14 -15 12 -37 21 -50 21 -31
0 -35 9 -37 84 -1 45 -7 70 -20 83 -22 26 -22 61 3 98 42 63 12 145 -53 145
-60 0 -225 -107 -353 -230 -89 -85 -141 -121 -208 -144 -18 -6 -18 -8 5 -32
21 -22 31 -25 76 -22 33 2 49 -1 44 -7 -83 -111 -139 -167 -190 -188 -31 -13
-31 -13 -11 -32 11 -10 33 -18 49 -17 30 1 105 34 116 52 3 5 10 10 15 10 11
0 -99 -188 -151 -257 -21 -29 -35 -54 -30 -57 19 -12 83 18 130 60 28 25 51
43 51 39 0 -18 -85 -167 -115 -203 -19 -22 -35 -43 -35 -46 0 -13 37 -5 75 15
52 28 89 63 127 122 17 26 32 46 34 45 1 -2 -1 -21 -6 -43 -5 -22 -6 -42 -3
-45 8 -8 60 59 85 112 l23 49 5 -43 5 -43 37 50 c21 28 40 63 44 79 l6 30 15
-27 c7 -15 18 -27 24 -27 5 0 15 -14 21 -30 6 -19 19 -32 35 -37 14 -3 34 -14
44 -24 11 -11 26 -19 35 -19 38 0 -25 -108 -114 -198 -82 -81 -158 -134 -238
-167 -75 -30 -86 -46 -55 -79 l23 -25 -21 -34 c-11 -19 -21 -49 -21 -67 0 -28
3 -32 20 -27 18 5 20 2 13 -16 -4 -12 -8 -42 -8 -66 0 -37 4 -46 20 -50 17 -5
20 -15 20 -66 0 -56 1 -60 23 -57 19 3 22 -1 22 -27 0 -38 18 -40 75 -11 26
13 42 17 49 10 18 -18 57 -10 84 17 20 20 35 26 60 24 27 -2 35 2 50 28 9 17
22 30 27 30 25 -3 33 3 45 31 10 23 17 29 34 24 11 -2 29 1 38 8 16 12 17 20
7 78 -10 62 -6 239 7 287 5 19 9 20 25 10 10 -6 19 -22 19 -34 0 -13 11 -29
24 -38 13 -9 26 -25 29 -35 6 -23 39 -39 45 -22 2 8 11 3 22 -10 16 -20 21
-21 39 -10 27 16 27 11 -9 -44 -73 -116 -63 -278 23 -372 60 -65 173 -93 281
-68 87 21 89 20 124 -9 25 -21 31 -23 42 -10 21 25 23 87 3 124 -31 59 -62 74
-150 76 -130 2 -156 31 -151 175 2 70 6 90 17 90 8 0 46 -19 83 -41 l68 -42
59 27 c32 14 67 26 78 26 26 0 117 33 137 49 22 18 20 63 -4 91 -39 45 -21 79
55 104 61 20 63 21 101 71 45 61 59 94 59 141 0 43 0 44 42 50 24 3 49 4 58 1
20 -8 47 21 40 44 -4 13 -2 19 8 19 14 0 47 31 47 44 0 4 -14 5 -31 1 l-31 -7
22 30 c32 43 21 62 -34 62 -25 0 -48 4 -51 10 -8 13 -128 10 -153 -4 -28 -16
-76 -75 -101 -123 -17 -35 -27 -43 -49 -43 -15 0 -38 -9 -51 -19 -23 -17 -28
-18 -65 -4 -97 36 -204 9 -270 -68 l-33 -40 -20 43 c-42 92 -58 147 -45 160
10 10 14 8 18 -10 7 -26 36 -29 55 -6 12 14 14 14 20 -4 11 -29 65 -39 89 -17
18 17 21 17 46 1 31 -21 51 -15 64 19 10 26 24 32 35 15 16 -26 65 2 68 38 1
15 9 18 41 18 40 -1 41 0 44 37 3 31 7 37 25 37 30 0 47 31 40 73 -5 31 -3 36
18 39 19 2 25 10 27 35 2 18 -2 41 -8 53 -6 12 -7 20 -1 20 5 0 17 7 25 16 18
18 13 58 -12 87 -14 16 -13 17 10 17 13 0 33 6 43 14 19 14 19 15 -5 35 l-25
20 38 1 c36 0 97 26 97 41 0 3 -12 12 -27 19 l-28 13 38 10 c23 5 56 26 80 51
l42 41 -43 3 -43 3 58 43 c60 43 98 90 88 105 -3 5 -21 5 -42 0 -21 -5 -41 -9
-45 -9 -4 0 13 19 38 42 25 23 56 63 69 89 24 46 23 68 0 49 -6 -5 -30 -16
-53 -24 l-41 -15 36 57 c47 73 89 204 66 201 -5 0 -50 -43 -101 -96z m52 15
c-21 -23 -49 -50 -61 -61 -13 -10 -23 -25 -23 -33 0 -8 -6 -13 -12 -11 -7 1
-12 -3 -11 -10 1 -6 -5 -17 -15 -25 -15 -12 -16 -11 -3 5 8 10 9 17 3 17 -11
0 -27 -19 -27 -32 0 -5 -4 -8 -9 -7 -5 0 -13 -6 -18 -15 -5 -9 -13 -14 -17
-11 -5 2 -15 -2 -22 -11 -13 -16 -89 -58 -89 -49 0 2 13 11 29 19 16 9 42 28
58 43 16 15 78 70 136 121 59 51 107 98 107 104 0 6 3 8 7 4 4 -3 -11 -25 -33
-48z m-176 -24 c-18 -25 -38 -55 -44 -65 -6 -10 -13 -17 -16 -14 -2 3 -18 -9
-34 -27 l-29 -31 35 22 35 23 -39 -35 c-24 -21 -46 -33 -55 -29 -9 3 -13 2 -9
-3 6 -6 -53 -55 -66 -55 -4 0 247 257 252 259 2 1 -12 -20 -30 -45z m-647
-175 c10 -19 -4 -28 -15 -10 -3 4 -20 12 -38 16 -28 6 -30 8 -13 14 27 11 54
2 66 -20z m-106 11 c3 -5 -1 -10 -9 -10 -9 0 -16 5 -16 10 0 6 4 10 9 10 6 0
13 -4 16 -10z m-45 -8 c0 -5 -6 -9 -14 -9 -22 0 -76 -24 -76 -34 0 -5 -5 -9
-11 -9 -16 0 0 20 35 41 32 20 66 25 66 11z m925 -5 c-11 -7 -36 -20 -55 -27
-19 -8 -53 -24 -75 -37 -66 -37 -167 -84 -171 -80 -3 2 19 14 48 27 29 12 62
31 73 41 12 10 57 34 100 54 83 36 113 44 80 22z m-927 -64 c-2 -11 -14 -19
-28 -20 l-25 -3 25 11 c20 8 22 12 10 19 -13 8 -12 10 3 10 12 0 17 -6 15 -17z
m162 2 c10 -13 9 -15 -11 -16 -19 -1 -20 -2 -5 -6 14 -4 9 -9 -24 -24 -49 -22
-66 -18 -23 5 15 8 23 15 17 16 -6 0 -28 -11 -49 -25 -20 -15 -39 -24 -41 -23
-9 10 38 68 55 68 11 0 23 5 26 10 9 15 41 12 55 -5z m-297 -15 c-5 -19 -23
-39 -23 -25 0 9 20 45 24 45 2 0 2 -9 -1 -20z m647 5 c-7 -9 -15 -13 -17 -11
-7 7 7 26 19 26 6 0 6 -6 -2 -15z m125 5 c-3 -5 -12 -10 -18 -10 -7 0 -6 4 3
10 19 12 23 12 15 0z m-171 -22 c-10 -13 -20 -25 -21 -27 -1 -1 -7 0 -13 4 -6
4 -2 13 12 25 32 27 45 25 22 -2z m81 -28 c-11 -5 -27 -9 -35 -9 -9 0 -8 4 5
9 11 5 27 9 35 9 9 0 8 -4 -5 -9z m-719 -26 c-4 -9 -9 -15 -11 -12 -3 3 -3 13
1 22 4 9 9 15 11 12 3 -3 3 -13 -1 -22z m592 14 c-3 -7 -13 -15 -24 -17 -16
-3 -17 -1 -5 13 16 19 34 21 29 4z m531 -2 c-2 -3 -44 -11 -93 -20 -48 -8 -93
-19 -100 -24 -16 -13 -79 -15 -71 -2 3 5 17 10 31 10 14 0 34 4 44 10 23 13
200 37 189 26z m-1281 -38 c11 -24 9 -34 -20 -93 -22 -45 -29 -71 -22 -79 41
-56 47 -70 45 -104 -7 -113 -7 -112 34 -105 23 4 43 0 60 -11 31 -21 33 -40 3
-31 -13 4 -32 9 -43 11 -20 5 -20 5 -1 -10 11 -9 18 -17 15 -19 -2 -1 -13 -9
-23 -17 -18 -14 -19 -13 -13 3 4 9 2 17 -4 17 -6 0 -9 9 -6 20 3 11 1 18 -4
15 -5 -3 -17 -1 -28 4 -15 9 -22 6 -35 -12 -14 -19 -15 -20 -9 -2 4 11 13 30
20 41 14 22 18 73 9 111 -5 22 -35 74 -48 83 -4 3 6 33 22 65 33 67 38 95 14
95 -8 0 -12 5 -9 10 3 6 1 10 -5 10 -6 0 -13 -7 -16 -15 -4 -8 -10 -15 -15
-15 -4 0 -6 7 -3 15 4 8 1 15 -5 15 -6 0 -11 -6 -11 -14 0 -7 -10 -16 -22 -20
-18 -4 -20 -8 -10 -18 6 -6 12 -17 12 -22 0 -6 -5 -4 -10 4 -8 13 -10 12 -10
-3 0 -10 -4 -16 -9 -13 -5 4 -5 23 1 46 10 38 21 50 31 33 2 -5 3 -3 1 3 -5
22 21 35 61 32 32 -2 42 -8 53 -30z m302 18 c0 -9 -30 -14 -35 -6 -4 6 3 10
14 10 12 0 21 -2 21 -4z m170 -6 c-8 -5 -24 -9 -35 -9 -16 1 -16 2 5 9 35 11
48 11 30 0z m-235 -28 c-7 -8 -35 7 -35 18 0 6 7 6 20 -2 10 -7 17 -14 15 -16z
m545 19 c0 -5 -9 -11 -21 -14 -16 -4 -18 -3 -8 9 13 16 29 19 29 5z m123 2
c-7 -2 -19 -2 -25 0 -7 3 -2 5 12 5 14 0 19 -2 13 -5z m-599 -27 c-7 -18 -23
-20 -44 -5 -13 9 -13 10 2 6 9 -3 22 1 29 9 15 18 22 13 13 -10z m386 3 c-7
-11 -9 -27 -6 -35 4 -10 2 -13 -7 -8 -6 4 -5 -1 4 -12 33 -39 50 -85 48 -132
-2 -26 -7 -50 -13 -54 -6 -4 -10 -34 -9 -68 1 -33 -3 -60 -8 -60 -5 0 -9 11
-9 24 0 14 -4 28 -10 31 -5 3 -10 15 -10 25 0 27 21 70 31 64 5 -3 9 12 9 34
0 39 -26 76 -48 70 -5 -2 -11 2 -12 7 -1 6 -6 16 -12 22 -14 17 -1 63 24 91
27 28 42 29 28 1z m-855 -9 c-3 -5 -12 -10 -20 -10 -7 0 -27 -14 -44 -31 -17
-17 -31 -26 -31 -21 0 15 68 72 86 72 8 0 12 -4 9 -10z m332 -62 c-3 -7 -5 -2
-5 12 0 14 2 19 5 13 2 -7 2 -19 0 -25z m158 3 c-6 -5 -25 10 -25 20 0 5 6 4
14 -3 8 -7 12 -15 11 -17z m59 -10 c-2 -3 -12 3 -22 13 -16 17 -16 18 5 5 12
-7 20 -15 17 -18z m-599 -16 c-21 -19 -41 -32 -44 -29 -8 8 56 64 72 64 6 0
-6 -16 -28 -35z m429 19 c3 -8 2 -12 -4 -9 -6 3 -10 10 -10 16 0 14 7 11 14
-7z m886 4 c36 -6 80 -12 98 -12 17 -1 32 -4 32 -8 0 -11 -18 -10 -160 11 -80
12 -109 19 -80 20 25 0 74 -4 110 -11z m-1402 -27 c-13 -16 -27 -28 -33 -27
-5 0 -9 -5 -7 -11 1 -7 -4 -12 -10 -10 -7 1 -12 -4 -10 -11 1 -8 -2 -11 -8 -7
-7 4 -14 -2 -17 -14 -3 -12 -12 -21 -21 -21 -8 0 -13 -3 -10 -6 8 -7 -28 -44
-43 -44 -5 0 -7 -6 -3 -12 4 -7 4 -10 0 -6 -4 3 -29 -6 -54 -21 -48 -28 -82
-43 -82 -37 0 2 24 18 53 34 30 17 98 73 152 126 97 94 140 125 93 67z m1195
12 c-7 -2 -21 -2 -30 0 -10 3 -4 5 12 5 17 0 24 -2 18 -5z m-522 -20 c13 -16
12 -17 -3 -4 -10 7 -18 15 -18 17 0 8 8 3 21 -13z m-560 -38 c-17 -19 -38 -49
-47 -66 -8 -17 -18 -29 -21 -26 -2 3 1 15 7 27 13 24 79 100 87 100 3 0 -9
-16 -26 -35z m70 -11 c-5 -16 -10 -21 -10 -12 -1 18 10 51 15 45 2 -1 -1 -16
-5 -33z m479 15 c0 -6 -4 -7 -10 -4 -5 3 -10 11 -10 16 0 6 5 7 10 4 6 -3 10
-11 10 -16z m477 15 c-3 -3 -12 -4 -19 -1 -8 3 -5 6 6 6 11 1 17 -2 13 -5z
m228 -43 c38 -22 63 -41 55 -41 -9 0 -26 7 -38 16 -12 8 -27 12 -32 9 -6 -4
-9 -1 -8 6 2 6 -3 14 -11 17 -9 3 -11 0 -6 -9 5 -7 -14 0 -41 15 -64 38 -64
38 -24 33 19 -3 66 -23 105 -46z m-735 -2 c0 -6 -4 -7 -10 -4 -5 3 -10 11 -10
16 0 6 5 7 10 4 6 -3 10 -11 10 -16z m80 11 c0 -5 -2 -10 -4 -10 -3 0 -8 5
-11 10 -3 6 -1 10 4 10 6 0 11 -4 11 -10z m-721 -30 c-21 -12 -185 -230 -182
-241 2 -5 -1 -9 -7 -9 -5 0 -31 -23 -57 -51 -26 -28 -56 -55 -68 -61 -11 -6 7
18 41 53 33 35 94 107 134 159 85 111 130 160 144 160 6 0 4 -5 -5 -10z m214
-10 c-3 -12 -8 -19 -11 -16 -5 6 5 36 12 36 2 0 2 -9 -1 -20z m1097 -45 c31
-33 37 -43 20 -34 -46 26 -110 80 -105 90 9 14 34 -3 85 -56z m-1187 9 c-14
-25 -28 -43 -31 -40 -5 5 44 86 52 86 3 0 -7 -20 -21 -46z m594 24 c-3 -8 -6
-5 -6 6 -1 11 2 17 5 13 3 -3 4 -12 1 -19z m-67 -14 c0 -8 -4 -12 -10 -9 -5 3
-10 13 -10 21 0 8 5 12 10 9 6 -3 10 -13 10 -21z m-427 -24 c-3 -11 -7 -20 -9
-20 -2 0 -4 9 -4 20 0 11 4 20 9 20 5 0 7 -9 4 -20z m561 4 c5 -14 4 -15 -9
-4 -17 14 -19 20 -6 20 5 0 12 -7 15 -16z m-540 -48 c-9 -15 -19 -25 -21 -22
-3 2 3 16 13 30 9 15 19 25 21 22 3 -2 -3 -16 -13 -30z m615 -15 c0 -14 -1
-14 -6 -1 -3 8 -10 24 -15 35 -9 20 -9 20 6 1 9 -11 16 -27 15 -35z m377 34
c10 -8 14 -15 8 -15 -5 0 -19 7 -30 15 -10 8 -14 15 -8 15 5 0 19 -7 30 -15z
m-456 -49 c0 -16 -28 15 -34 37 -5 21 -4 21 14 -3 11 -14 20 -29 20 -34z m450
-2 c0 -3 -13 3 -30 13 -16 9 -30 21 -30 26 0 5 14 -1 30 -13 17 -12 30 -24 30
-26z m-1195 9 c-38 -58 -58 -96 -106 -205 -28 -62 -52 -117 -53 -123 -12 -43
-117 -258 -123 -251 -2 2 9 30 25 62 16 33 50 109 75 170 69 168 175 374 193
374 4 0 -2 -12 -11 -27z m143 5 c-7 -13 -11 -26 -10 -30 1 -3 -5 -9 -13 -12
-21 -8 -19 7 6 38 25 32 34 34 17 4z m492 -11 c0 -5 -4 -5 -10 -2 -5 3 -10 14
-10 23 0 15 2 15 10 2 5 -8 10 -19 10 -23z m146 -22 c21 -52 7 -38 -18 17 -11
24 -15 39 -9 33 5 -5 17 -28 27 -50z m-864 8 c-10 -16 -43 -73 -72 -128 -64
-122 -168 -292 -183 -302 -6 -3 -1 9 10 28 53 85 115 193 139 242 32 62 111
187 119 187 4 0 -2 -12 -13 -27z m299 -4 c-9 -22 -10 -22 -10 -3 -1 11 2 24 6
27 12 12 14 0 4 -24z m1026 25 c-3 -3 -12 -4 -19 -1 -8 3 -5 6 6 6 11 1 17 -2
13 -5z m-206 -31 c13 -16 12 -17 -3 -4 -10 7 -18 15 -18 17 0 8 8 3 21 -13z
m-351 -9 c0 -8 -4 -12 -10 -9 -5 3 -10 10 -10 16 0 5 5 9 10 9 6 0 10 -7 10
-16z m58 -24 c6 -16 7 -30 2 -30 -11 0 -16 8 -24 43 -9 37 9 27 22 -13z m537
-14 c6 -4 1 -4 -10 2 -11 6 -29 21 -40 34 -19 22 -19 22 10 -2 17 -14 35 -29
40 -34z m-10 44 c3 -5 2 -10 -4 -10 -5 0 -13 5 -16 10 -3 6 -2 10 4 10 5 0 13
-4 16 -10z m-1235 -106 c-11 -43 -29 -124 -39 -179 -11 -59 -19 -85 -20 -65
-1 60 63 339 76 327 2 -2 -6 -40 -17 -83z m797 24 c-2 -13 -4 -3 -4 22 0 25 2
35 4 23 2 -13 2 -33 0 -45z m338 52 c3 -5 2 -10 -4 -10 -5 0 -13 5 -16 10 -3
6 -2 10 4 10 5 0 13 -4 16 -10z m-1015 -21 c-7 -11 -14 -18 -17 -15 -3 3 0 12
7 21 18 21 23 19 10 -6z m-191 -104 c-23 -60 -52 -152 -65 -204 -27 -104 -41
-132 -29 -61 13 80 120 389 130 378 2 -2 -14 -53 -36 -113z m721 90 c0 -8 -4
-17 -10 -20 -6 -4 -10 5 -10 20 0 15 4 24 10 20 6 -3 10 -12 10 -20z m-410 -9
c-5 -13 -6 -27 -3 -30 4 -3 1 -6 -5 -6 -7 0 -12 2 -12 4 0 11 20 56 25 56 2 0
0 -11 -5 -24z m950 2 c0 -6 -6 -5 -15 2 -8 7 -15 14 -15 16 0 2 7 1 15 -2 8
-4 15 -11 15 -16z m-490 -26 c0 -9 -5 -24 -10 -32 -7 -11 -10 -5 -10 23 0 23
4 36 10 32 6 -3 10 -14 10 -23z m-586 3 c-4 -8 -11 -15 -16 -15 -6 0 -5 6 2
15 7 8 14 15 16 15 2 0 1 -7 -2 -15z m644 -21 c-3 -14 -5 -12 -10 9 -3 19 -2
25 4 19 6 -6 8 -18 6 -28z m-608 -1 c-5 -16 -10 -35 -12 -43 -3 -7 -7 -10 -10
-4 -6 9 17 74 26 74 3 0 1 -12 -4 -27z m1056 13 c10 -8 17 -17 14 -19 -3 -3
-16 3 -29 14 -27 22 -15 26 15 5z m-1138 -25 c0 -16 -6 -35 -14 -42 -17 -14
-19 6 -4 45 12 34 17 33 18 -3z m722 -15 c0 -26 -6 -18 -14 19 -5 22 -4 26 4
15 5 -8 10 -24 10 -34z m314 18 c9 -3 16 -11 16 -16 0 -6 11 -19 25 -30 32
-25 32 -40 1 -25 -13 7 -22 15 -20 19 3 5 -2 8 -11 8 -10 0 -13 5 -9 12 4 6
-1 17 -11 25 -20 14 -16 17 9 7z m-344 -35 c0 -6 -4 -7 -10 -4 -5 3 -10 11
-10 16 0 6 5 7 10 4 6 -3 10 -11 10 -16z m-573 -23 c-3 -19 0 -39 6 -47 10
-11 9 -11 -5 0 -18 14 -23 37 -12 65 11 28 17 17 11 -18z m585 -18 c-8 -8 -9
-4 -5 13 4 13 8 18 11 10 2 -7 -1 -18 -6 -23z m-520 -17 c3 -31 1 -37 -9 -29
-8 6 -11 22 -9 37 8 45 13 43 18 -8z m-137 9 c-1 -11 -7 -26 -13 -32 -15 -15
-15 -7 -2 26 11 31 17 33 15 6z m605 -47 c-11 -17 -11 -17 -6 0 3 10 7 31 7
45 l2 27 4 -27 c2 -15 -1 -35 -7 -45z m355 37 c10 -11 16 -20 13 -20 -3 0 -13
9 -23 20 -10 11 -16 20 -13 20 3 0 13 -9 23 -20z m-1028 -27 c-7 -22 -13 -31
-15 -21 -3 15 14 58 22 58 2 0 -1 -17 -7 -37z m253 21 c0 -8 -5 -12 -10 -9 -6
4 -8 11 -5 16 9 14 15 11 15 -7z m874 -10 c10 -25 -1 -29 -14 -5 -6 12 -7 21
-1 21 5 0 12 -7 15 -16z m-73 -45 c8 -15 6 -17 -6 -13 -9 4 -13 9 -11 12 3 3
-2 11 -12 19 -16 12 -16 13 1 7 10 -4 22 -15 28 -25z m-1005 -20 c-9 -20 -15
-27 -16 -16 0 20 19 61 26 54 2 -2 -2 -19 -10 -38z m65 0 c-6 -16 -10 -18 -10
-7 -1 22 12 55 16 42 2 -6 -1 -22 -6 -35z m844 21 c10 -11 13 -20 7 -20 -6 0
-16 9 -22 20 -6 11 -9 20 -7 20 2 0 12 -9 22 -20z m-958 -57 c-3 -10 -5 -2 -5
17 0 19 2 27 5 18 2 -10 2 -26 0 -35z m185 -41 c2 -40 0 -72 -5 -72 -5 0 -7
16 -5 35 2 19 0 36 -4 37 -4 2 -5 20 -1 41 3 21 7 36 9 34 2 -2 5 -35 6 -75z
m701 48 c3 -11 2 -18 -3 -15 -4 3 -10 14 -13 25 -3 11 -2 18 3 15 4 -3 10 -14
13 -25z m95 -16 c-4 -3 -12 5 -18 18 -12 22 -12 22 6 6 10 -10 15 -20 12 -24z
m80 5 c-3 -8 -7 -3 -11 10 -4 17 -3 21 5 13 5 -5 8 -16 6 -23z m-941 -39 c-2
-27 -7 -53 -12 -57 -4 -4 -5 0 -2 9 3 9 2 18 -3 20 -8 3 8 78 16 78 2 0 2 -22
1 -50z m-72 10 c-3 -10 -1 -28 5 -40 7 -13 7 -20 1 -20 -13 0 -25 45 -17 65 8
22 18 18 11 -5z m845 -24 c0 -12 -5 -7 -19 24 -11 24 -11 24 3 6 9 -11 16 -24
16 -30z m89 10 c-3 -3 -11 5 -18 17 -13 21 -12 21 5 5 10 -10 16 -20 13 -22z
m371 29 c0 -2 -10 -10 -22 -16 -21 -11 -22 -11 -9 4 13 16 31 23 31 12z m-556
-20 c3 -8 1 -15 -4 -15 -6 0 -10 7 -10 15 0 8 2 15 4 15 2 0 6 -7 10 -15z
m461 5 c3 -5 2 -10 -4 -10 -5 0 -13 5 -16 10 -3 6 -2 10 4 10 5 0 13 -4 16
-10z m-1018 -22 c-3 -8 -6 -5 -6 6 -1 11 2 17 5 13 3 -3 4 -12 1 -19z m547
-24 c3 -8 2 -12 -4 -9 -6 3 -10 10 -10 16 0 14 7 11 14 -7z m97 -1 c13 -16 12
-17 -3 -4 -10 7 -18 15 -18 17 0 8 8 3 21 -13z m-11 -33 c0 -11 -4 -20 -9 -20
-5 0 -7 9 -4 20 3 11 7 20 9 20 2 0 4 -9 4 -20z m-100 -5 c0 -8 -7 -15 -15
-15 -13 0 -14 3 -3 15 16 18 18 18 18 0z m640 1 c0 -2 -9 -6 -20 -9 -11 -3
-20 -1 -20 4 0 5 9 9 20 9 11 0 20 -2 20 -4z m-791 -126 c17 -41 31 -82 30
-90 0 -8 -5 -3 -11 13 -5 15 -14 25 -19 22 -5 -4 -6 1 -3 9 3 9 1 16 -5 16 -6
0 -8 7 -4 17 4 11 3 14 -5 9 -8 -5 -10 -2 -6 8 3 9 2 16 -3 16 -5 0 -9 8 -9
18 -1 9 -5 26 -9 37 -6 14 -5 17 3 10 6 -5 25 -44 41 -85z m815 59 c-3 -5 -14
-5 -25 1 -26 14 -24 18 6 12 14 -2 22 -8 19 -13z m-357 -41 c-3 -8 -6 -5 -6 6
-1 11 2 17 5 13 3 -3 4 -12 1 -19z m-184 5 c-7 -2 -21 -2 -30 0 -10 3 -4 5 12
5 17 0 24 -2 18 -5z m-393 -73 c0 -5 -5 -10 -11 -10 -5 0 -7 5 -4 10 3 6 8 10
11 10 2 0 4 -4 4 -10z m-419 -29 c-6 -10 -46 -51 -88 -91 -55 -51 -104 -84
-167 -115 -50 -25 -92 -42 -95 -40 -5 6 -13 1 89 52 81 41 211 142 245 191 20
27 30 29 16 3z m429 -22 c0 -6 -4 -7 -10 -4 -5 3 -10 11 -10 16 0 6 5 7 10 4
6 -3 10 -11 10 -16z m-9 -62 c-10 -9 -11 -8 -5 6 3 10 9 15 12 12 3 -3 0 -11
-7 -18z m529 -2 c-7 -8 -17 -15 -22 -15 -11 0 14 29 26 30 5 0 3 -7 -4 -15z
m-500 -25 c0 -5 -5 -10 -11 -10 -5 0 -7 5 -4 10 3 6 8 10 11 10 2 0 4 -4 4
-10z m-588 -72 c-11 -13 -57 -52 -101 -88 -44 -36 -80 -71 -81 -77 0 -7 -4
-13 -10 -13 -5 0 -11 -12 -11 -27 -1 -23 -2 -24 -6 -6 -7 37 18 67 122 151
105 85 123 97 87 60z m908 -18 c-11 -11 -23 -20 -27 -20 -3 0 2 9 12 20 10 11
22 20 27 20 4 0 -1 -9 -12 -20z m-290 -20 c0 -5 -5 -10 -11 -10 -5 0 -7 5 -4
10 3 6 8 10 11 10 2 0 4 -4 4 -10z m16 -28 c-18 -16 -18 -16 -6 6 6 13 14 21
18 18 3 -4 -2 -14 -12 -24z m234 18 c0 -5 -5 -10 -11 -10 -5 0 -7 5 -4 10 3 6
8 10 11 10 2 0 4 -4 4 -10z m180 -25 c0 -14 -2 -25 -4 -25 -2 0 -6 11 -8 25
-3 14 -1 25 3 25 5 0 9 -11 9 -25z m76 -51 c-9 -8 -11 -9 -6 -2 6 7 11 21 11
33 1 18 2 18 6 1 3 -10 -2 -25 -11 -32z m-107 -17 c1 -5 -6 -1 -15 7 -8 9 -12
21 -8 28 5 8 10 6 15 -8 4 -10 8 -23 8 -27z m-1149 -72 c-19 -28 -26 -45 -18
-45 8 0 7 -4 -4 -10 -9 -6 -19 -24 -23 -40 -4 -16 -11 -33 -17 -36 -13 -8 -1
50 18 87 14 28 63 89 70 89 3 0 -9 -20 -26 -45z m788 10 c-3 -3 -9 2 -12 12
-6 14 -5 15 5 6 7 -7 10 -15 7 -18z m-763 -121 c-14 -25 -28 -57 -30 -72 -2
-15 -4 -28 -6 -29 -1 -2 -2 -7 -3 -12 -3 -24 -16 -21 -16 3 0 32 21 86 50 127
32 44 35 35 5 -17z m402 14 c-3 -8 -6 -5 -6 6 -1 11 2 17 5 13 3 -3 4 -12 1
-19z m-336 -56 c-6 -11 -8 -27 -5 -35 3 -8 -2 -17 -11 -21 -9 -3 -14 -10 -10
-15 3 -5 1 -12 -5 -16 -6 -4 -8 -10 -5 -15 3 -5 1 -11 -5 -15 -5 -3 -10 -18
-10 -33 0 -16 -4 -22 -9 -16 -14 13 5 88 36 146 14 27 28 46 30 44 3 -2 0 -13
-6 -24z m70 -125 c-6 -8 -7 -18 -3 -22 4 -5 1 -5 -6 -1 -10 6 -10 11 -1 22 6
8 14 14 16 14 3 0 0 -6 -6 -13z"/>
<path d="M1540 2286 c0 -2 8 -10 18 -17 15 -13 16 -12 3 4 -13 16 -21 21 -21
13z"/>
<path d="M1856 2225 c10 -8 24 -14 29 -14 6 0 1 6 -9 14 -11 8 -24 15 -30 15
-5 0 -1 -7 10 -15z"/>
<path d="M1790 2177 c0 -3 12 -12 26 -22 15 -9 23 -12 20 -6 -7 11 -46 35 -46
28z"/>
<path d="M2272 1280 c0 -14 2 -19 5 -12 2 6 2 18 0 25 -3 6 -5 1 -5 -13z"/>
</g>
</svg>
